<svg id="Layer_1" data-name="Layer 1" xmlns="http://www.w3.org/2000/svg" xmlns:xlink="http://www.w3.org/1999/xlink" viewBox="0 0 917.13 1067.01"><defs><style>.cls-1{fill:url(#linear-gradient);}.cls-2{fill:url(#linear-gradient-2);}.cls-3{fill:url(#linear-gradient-3);}.cls-4{fill:url(#linear-gradient-4);}.cls-5{fill:url(#linear-gradient-5);}.cls-6{fill:url(#linear-gradient-6);}.cls-7{fill:url(#linear-gradient-7);}</style><linearGradient id="linear-gradient" x1="1121.25" y1="494.01" x2="1700.75" y2="494.01" gradientUnits="userSpaceOnUse"><stop offset="0" stop-color="#bf00b0"/><stop offset="1" stop-color="#5600d4"/></linearGradient><linearGradient id="linear-gradient-2" x1="1334.33" y1="730" x2="1538.67" y2="634.72" gradientUnits="userSpaceOnUse"><stop offset="0.16" stop-color="#bf00b0"/><stop offset="1" stop-color="#5600d4"/></linearGradient><linearGradient id="linear-gradient-3" x1="995.84" y1="1221.43" x2="1472.55" y2="1075.69" gradientUnits="userSpaceOnUse"><stop offset="0" stop-color="#ce00e9"/><stop offset="0.39" stop-color="#9e00bf"/><stop offset="1" stop-color="#3200e9"/></linearGradient><linearGradient id="linear-gradient-4" x1="1039.59" y1="1215.39" x2="1735.01" y2="891.11" xlink:href="#linear-gradient-2"/><linearGradient id="linear-gradient-5" x1="1427.28" y1="629.12" x2="1405.9" y2="454.97" xlink:href="#linear-gradient-2"/><linearGradient id="linear-gradient-6" x1="1676.67" y1="910.62" x2="1909.88" y2="823.89" xlink:href="#linear-gradient-2"/><linearGradient id="linear-gradient-7" x1="1666.67" y1="965.8" x2="1944.19" y2="818.24" gradientUnits="userSpaceOnUse"><stop offset="0" stop-color="#9e00bf"/><stop offset="1" stop-color="#3200e9"/></linearGradient></defs><path class="cls-1" d="M1700.75,424.29l-455.5,222.9a76.87,76.87,0,0,1-102.85-35.26l-21.15-43.22,33.16-16.23L1590,339.33a62.13,62.13,0,0,1,83.13,28.5Z" transform="translate(-987.9 -332.99)"/><path class="cls-2" d="M1498,547.51l-67.58,33.59A99.88,99.88,0,0,0,1375,670.53V817.21l84.84-41.52A68.06,68.06,0,0,0,1498,714.54Z" transform="translate(-987.9 -332.99)"/><path class="cls-3" d="M1495.66,1151.28q-5.78,72.17-25.82,117.67-28.17,63.94-89.22,97.5T1237.31,1400q-122.13,0-187-70.17T988,1121.48c0-.21,0-.41,0-.61,4.37-39,16.75-94.51,56-142.87,26.14-32.24,57.19-52.64,92.09-67.63A232.2,232.2,0,0,0,1036,1101.5c0,128.41,104.09,232.5,232.5,232.5C1379.82,1334,1472.87,1255.77,1495.66,1151.28Z" transform="translate(-987.9 -332.99)"/><path class="cls-4" d="M1605.87,825.29c-68.93,49-130.8,80.51-184.83,100.75a566,566,0,0,1-113,30c-85.35,13.12-150.35,34.89-183,85-19.76,30.32-26,65.68-26,65.68a179,179,0,0,0,4.39,79.49c3.89,13.55,12.46,40.11,35.36,65.55q35.37,39.29,97.91,39.28,46.1,0,79.58-21.22t46.09-57.66Q1375,1175.7,1375,1095.88v-71a86.63,86.63,0,0,1,48.55-77.81l13-6.34,52.79-25.83a6,6,0,0,1,8.71,5.43V1088.5a226.07,226.07,0,0,1-2.34,62.78c-.62,3.48-16.32,84.51-82.66,140.72-79.11,67-217.4,87.88-306,18-65.76-51.87-78.14-133.2-81-152-9.6-63.07,7.37-112.16,13-127,26.76-70.57,78-108,97.09-120.63,41.4-17.8,88.21-28,138.64-41.28,15.11-4,30.55-8.26,46.27-13.09,79.58-24.49,189.35-70.67,311.79-166.5a6,6,0,0,1,9.77,4.36l3.12,47.93A95,95,0,0,1,1605.87,825.29Z" transform="translate(-987.9 -332.99)"/><path class="cls-5" d="M1700.75,424.29l-455.5,222.9a76.87,76.87,0,0,1-102.85-35.26l-21.15-43.22,33.16-16.23C1266.16,502.31,1402.6,457.12,1561,436,1609.72,429.5,1656.42,425.83,1700.75,424.29Z" transform="translate(-987.9 -332.99)"/><path class="cls-6" d="M1825.41,1264.34A1000.44,1000.44,0,0,1,1746,1097c-48.44-132.61-57.44-245.08-67-376-3.23-44.31-6.09-101.21-6.07-168.13a71.9,71.9,0,0,1,69.93-71.78L1782,480q-.7,15.83-1.14,31.07a71.73,71.73,0,0,0-38.13,57.74c-5.4,66.7-7.11,123.65-7.44,168.07-1,131.27-1,244.1,36.62,380.17A1000.82,1000.82,0,0,0,1825.41,1264.34Z" transform="translate(-987.9 -332.99)"/><path class="cls-7" d="M1874.87,1249.1,1830,1272q-2.25-3.7-4.59-7.66a1000.82,1000.82,0,0,1-53.5-147.29c-37.65-136.07-37.6-248.9-36.62-380.17.33-44.42,2-101.37,7.44-168.07a71.73,71.73,0,0,1,38.13-57.74c-2.37,81.22.45,149.84,4.14,201.93,7.37,104.08,14.11,199.34,52,315a964.46,964.46,0,0,0,61.74,146.33A55.24,55.24,0,0,1,1874.87,1249.1Z" transform="translate(-987.9 -332.99)"/></svg>