<svg xmlns="http://www.w3.org/2000/svg" xmlns:xlink="http://www.w3.org/1999/xlink" viewBox="0 0 144.83 235.84"><defs><style>.cls-1{fill:url(#linear-gradient);}.cls-2{fill:url(#linear-gradient-2);}</style><linearGradient id="linear-gradient" x1="7195.47" y1="7179.08" x2="7356.87" y2="7340.48" gradientUnits="userSpaceOnUse"><stop offset="0" stop-color="#0f4"/><stop offset="1" stop-color="aqua"/></linearGradient><linearGradient id="linear-gradient-2" x1="1.99" y1="9.42" x2="181.65" y2="189.08" xlink:href="#linear-gradient"/></defs><g id="Layer_5" data-name="Layer 5"><path class="cls-1" d="M7346.69,7192.16c1.19-26.55-19.71-45.23-24.3-49.34-25.93-23.18-58.62-19.57-64.09-18.87-9.33-.81-16.48,6.8-16,13.92s8.31,13.56,17.36,11.79c2.73-.69,20.2-4.79,36.59,6.31,11.64,7.88,19.83,22.52,19.62,34.42-.38,22.46-27.37,46.66-67,47.82a10.69,10.69,0,0,0-3.73.68,116.12,116.12,0,0,0-11.89-.74V7186.3a14.9,14.9,0,1,0-29.8,0v158a14.9,14.9,0,1,0,29.8,0v-81.12c9.59.52,37.1,3.75,59.39,26.56,20.87,21.35,24.14,46.54,24.84,54,1.85,11.28,12.63,17.13,20.08,14.51,5.91-2.07,10.22-9.65,8.91-18-1-7.82-7.07-51.3-46.1-80a112.46,112.46,0,0,0-9.58-6.3,88.69,88.69,0,0,0,12.5-5.58C7311.13,7244.11,7345.2,7225.58,7346.69,7192.16Z" transform="translate(-7201.91 -7123.33)"/><circle class="cls-2" cx="16.82" cy="24.25" r="16.82"/></g></svg>